<svg width="32" height="48" xmlns="http://www.w3.org/2000/svg">

 <g>
  <title>background</title>
  <rect fill="none" id="canvas_background" height="50" width="34" y="-1" x="-1"/>
 </g>
 <g>
  <g stroke="null" id="svg_4">
   <title stroke="null">Layer 1</title>
   <path stroke="null" id="svg_2" fill="#3b68e5" d="m16.000001,0.047274c-8.819194,0 -15.968484,7.14929 -15.968484,15.968484c0,2.836402 0.761697,5.489166 2.058338,7.796612c0.215375,0.383244 0.441129,0.760499 0.686246,1.123782l13.223901,23.016573l13.223901,-23.016573c0.203598,-0.301405 0.379251,-0.620775 0.560893,-0.936152l0.125752,-0.18763c1.295443,-2.307446 2.057938,-4.96021 2.057938,-7.796612c0,-8.819194 -7.149889,-15.968484 -15.968484,-15.968484zm0,7.984242c4.409298,0 7.984242,3.574745 7.984242,7.984242c0,4.409298 -3.574944,7.984242 -7.984242,7.984242c-4.409497,0 -7.984242,-3.574944 -7.984242,-7.984242c0,-4.409497 3.574745,-7.984242 7.984242,-7.984242z"/>
   <path stroke="null" id="svg_3" fill="#2b3dbf" d="m16.000001,6.035455c-5.511921,0 -9.980302,4.468381 -9.980302,9.980302c0,5.511123 4.468381,9.980302 9.980302,9.980302c5.511123,0 9.980302,-4.469179 9.980302,-9.980302c0,-5.511921 -4.469179,-9.980302 -9.980302,-9.980302zm0,3.992121c3.307472,0 5.988181,2.680909 5.988181,5.988181s-2.680709,5.988181 -5.988181,5.988181s-5.988181,-2.680909 -5.988181,-5.988181s2.680709,-5.988181 5.988181,-5.988181z"/>
  </g>
 </g>
</svg>